<svg width="439" height="104" viewBox="0 0 439 104" fill="none" xmlns="http://www.w3.org/2000/svg">
<path fill-rule="evenodd" clip-rule="evenodd" d="M100 0H23.5C10 0 0 10 0 24V101.5C0 102.5 1 103.5 2 103.5C9.41605 103.5 19.1862 103.52 29.2051 103.54H29.2076H29.2097H29.2114H29.2127H29.2144H29.2166C50.0414 103.582 71.9374 103.627 76 103.5C92 103 102 93.5 102 77V2C102 1 101 0 100 0ZM10 61.5V24C10 16 15.5 10 23.5 10H57.75H92V32H83.5C64.5 32 58.0506 37.8363 51 45.5C40.5 59.2734 35 61.5 19.5 61.5H10ZM10 93.5V71.5H19.5C34.5 71.5 45 68.1 51 61.5C51.6925 60.7383 52.361 59.9957 53.0113 59.2734C62.5 48.7336 64.5 42 83.5 42H92V77C92 87.5 86 93.5 76 93.5H10Z" fill="#002B3A"/>
<path d="M157.175 61.7822C157.549 64.4782 158.283 66.4935 159.377 67.8281C161.379 70.2572 164.809 71.4717 169.667 71.4717C172.576 71.4717 174.939 71.1514 176.754 70.5107C180.197 69.2829 181.919 67.0007 181.919 63.6641C181.919 61.7155 181.065 60.2074 179.356 59.1396C177.648 58.0986 174.965 57.1777 171.309 56.377L165.062 54.9756C158.923 53.5876 154.679 52.0794 152.33 50.4512C148.353 47.7285 146.364 43.471 146.364 37.6787C146.364 32.3936 148.286 28.0026 152.13 24.5059C155.974 21.0091 161.619 19.2607 169.066 19.2607C175.286 19.2607 180.584 20.9157 184.962 24.2256C189.366 27.5088 191.675 32.2868 191.889 38.5596H180.037C179.824 35.0094 178.275 32.487 175.393 30.9922C173.471 30.0046 171.082 29.5107 168.226 29.5107C165.049 29.5107 162.513 30.1514 160.618 31.4326C158.723 32.7139 157.775 34.5023 157.775 36.7979C157.775 38.9066 158.71 40.4814 160.578 41.5225C161.779 42.2165 164.342 43.0306 168.266 43.9648L178.436 46.4072C182.893 47.4749 186.257 48.903 188.525 50.6914C192.049 53.4674 193.811 57.4847 193.811 62.7432C193.811 68.1351 191.742 72.6195 187.604 76.1963C183.494 79.7464 177.675 81.5215 170.147 81.5215C162.46 81.5215 156.414 79.7731 152.01 76.2764C147.605 72.7529 145.403 67.9215 145.403 61.7822H157.175ZM226.082 58.7793C225.361 59.2331 224.627 59.6068 223.88 59.9004C223.159 60.1673 222.158 60.4209 220.877 60.6611L218.314 61.1416C215.912 61.5687 214.19 62.0892 213.149 62.7031C211.388 63.7441 210.507 65.359 210.507 67.5479C210.507 69.4964 211.041 70.9111 212.108 71.792C213.203 72.6462 214.524 73.0732 216.072 73.0732C218.528 73.0732 220.784 72.3525 222.839 70.9111C224.921 69.4697 226.002 66.8405 226.082 63.0234V58.7793ZM219.155 53.4541C221.264 53.1872 222.772 52.8535 223.68 52.4531C225.308 51.7591 226.122 50.6781 226.122 49.21C226.122 47.4215 225.495 46.1937 224.24 45.5264C223.012 44.8324 221.197 44.4854 218.795 44.4854C216.099 44.4854 214.19 45.1527 213.069 46.4873C212.269 47.4749 211.735 48.8096 211.468 50.4912H200.457C200.697 46.6742 201.765 43.5378 203.66 41.082C206.676 37.2383 211.855 35.3164 219.195 35.3164C223.973 35.3164 228.217 36.264 231.928 38.1592C235.638 40.0544 237.493 43.6312 237.493 48.8896V68.9092C237.493 70.2972 237.52 71.9788 237.573 73.9541C237.653 75.4489 237.88 76.4632 238.254 76.9971C238.628 77.5309 239.188 77.9714 239.936 78.3184V80H227.523C227.176 79.1191 226.936 78.2917 226.803 77.5176C226.669 76.7435 226.562 75.8626 226.482 74.875C224.908 76.5833 223.092 78.0381 221.037 79.2393C218.581 80.654 215.805 81.3613 212.709 81.3613C208.758 81.3613 205.489 80.2402 202.899 77.998C200.337 75.7292 199.056 72.526 199.056 68.3887C199.056 63.0234 201.124 59.1396 205.262 56.7373C207.531 55.4294 210.867 54.4951 215.271 53.9346L219.155 53.4541ZM259.314 80H247.903V20.9824H259.314V80ZM266.001 44.8857V36.7578H272.087V24.5859H283.378V36.7578H290.465V44.8857H283.378V67.9482C283.378 69.7367 283.605 70.8577 284.059 71.3115C284.512 71.7386 285.9 71.9521 288.223 71.9521C288.57 71.9521 288.93 71.9521 289.304 71.9521C289.704 71.9255 290.091 71.8988 290.465 71.8721V80.4004L285.06 80.6006C279.668 80.7874 275.984 79.8532 274.009 77.7979C272.728 76.4899 272.087 74.4746 272.087 71.752V44.8857H266.001ZM331.945 39.7607C331.945 36.6911 331.131 34.5023 329.503 33.1943C327.901 31.8864 325.646 31.2324 322.736 31.2324H311.245V48.6094H322.736C325.646 48.6094 327.901 47.902 329.503 46.4873C331.131 45.0726 331.945 42.8304 331.945 39.7607ZM344.157 39.6807C344.157 46.6475 342.396 51.5723 338.872 54.4551C335.349 57.3379 330.317 58.7793 323.777 58.7793H311.245V80H298.993V20.9824H324.698C330.624 20.9824 335.349 22.5039 338.872 25.5469C342.396 28.5898 344.157 33.3011 344.157 39.6807ZM376.549 58.7793C375.828 59.2331 375.094 59.6068 374.347 59.9004C373.626 60.1673 372.625 60.4209 371.344 60.6611L368.781 61.1416C366.379 61.5687 364.657 62.0892 363.616 62.7031C361.854 63.7441 360.974 65.359 360.974 67.5479C360.974 69.4964 361.507 70.9111 362.575 71.792C363.67 72.6462 364.991 73.0732 366.539 73.0732C368.995 73.0732 371.25 72.3525 373.306 70.9111C375.388 69.4697 376.469 66.8405 376.549 63.0234V58.7793ZM369.622 53.4541C371.731 53.1872 373.239 52.8535 374.146 52.4531C375.775 51.7591 376.589 50.6781 376.589 49.21C376.589 47.4215 375.962 46.1937 374.707 45.5264C373.479 44.8324 371.664 44.4854 369.262 44.4854C366.566 44.4854 364.657 45.1527 363.536 46.4873C362.735 47.4749 362.201 48.8096 361.935 50.4912H350.924C351.164 46.6742 352.232 43.5378 354.127 41.082C357.143 37.2383 362.322 35.3164 369.662 35.3164C374.44 35.3164 378.684 36.264 382.395 38.1592C386.105 40.0544 387.96 43.6312 387.96 48.8896V68.9092C387.96 70.2972 387.987 71.9788 388.04 73.9541C388.12 75.4489 388.347 76.4632 388.721 76.9971C389.094 77.5309 389.655 77.9714 390.402 78.3184V80H377.99C377.643 79.1191 377.403 78.2917 377.27 77.5176C377.136 76.7435 377.029 75.8626 376.949 74.875C375.374 76.5833 373.559 78.0381 371.504 79.2393C369.048 80.654 366.272 81.3613 363.176 81.3613C359.225 81.3613 355.955 80.2402 353.366 77.998C350.804 75.7292 349.522 72.526 349.522 68.3887C349.522 63.0234 351.591 59.1396 355.729 56.7373C357.997 55.4294 361.334 54.4951 365.738 53.9346L369.622 53.4541ZM399.892 88.3682L401.333 88.4482C402.454 88.5016 403.522 88.4616 404.536 88.3281C405.55 88.1947 406.405 87.8877 407.099 87.4072C407.766 86.9535 408.38 86.0059 408.94 84.5645C409.528 83.123 409.768 82.2422 409.661 81.9219L393.646 36.3574H406.338L415.867 68.5488L424.876 36.3574H437.008L422.033 79.2793C419.15 87.554 416.868 92.679 415.187 94.6543C413.505 96.6562 410.142 97.6572 405.097 97.6572C404.082 97.6572 403.268 97.6439 402.654 97.6172C402.04 97.6172 401.119 97.5771 399.892 97.4971V88.3682Z" fill="#002B3A"/>
</svg>
